<svg width="590" height="221" viewBox="0 0 590 221" fill="none" xmlns="http://www.w3.org/2000/svg">
<rect width="590" height="221" fill="#F5F5F5"/>
<g id="EXPORT PACKAGE &#226;&#128;&#148; v2 premium no-text no-icons">
<g id="select_card_amber__center__no_text_no_icon" clip-path="url(#clip0_0_1)">
<g id="combined source / select-card / standalone / premium">
<g id="Group 16">
<g id="Select-card">
<g id="select-card / path / 89-296" filter="url(#filter1_dd_0_1)">
<path d="M752.324 27C767.633 27.1859 784.421 42.2108 785.382 56.6103C785.945 69.883 801.878 71.5731 801.878 71.5731C801.878 71.5731 794.628 94.2315 832 109.504C832 109.504 796.09 126.011 801.253 148.376C788.38 149.751 785.799 159.266 785.129 165.947C784.46 172.623 772.172 194.493 752.324 193.992H-70.3244C-90.1772 194.493 -102.466 172.623 -103.129 165.947C-103.793 159.272 -106.38 149.756 -119.253 148.376C-114.085 126.011 -150 109.504 -150 109.504C-112.634 94.2315 -119.878 71.5731 -119.878 71.5731C-119.878 71.5731 -103.945 69.8831 -103.382 56.6103C-102.426 42.2108 -85.633 27.1915 -70.3244 27H752.324Z" fill="url(#paint0_linear_0_1)" fill-opacity="0.85"/>
<path d="M752.324 27C767.633 27.1859 784.421 42.2108 785.382 56.6103C785.945 69.883 801.878 71.5731 801.878 71.5731C801.878 71.5731 794.628 94.2315 832 109.504C832 109.504 796.09 126.011 801.253 148.376C788.38 149.751 785.799 159.266 785.129 165.947C784.46 172.623 772.172 194.493 752.324 193.992H-70.3244C-90.1772 194.493 -102.466 172.623 -103.129 165.947C-103.793 159.272 -106.38 149.756 -119.253 148.376C-114.085 126.011 -150 109.504 -150 109.504C-112.634 94.2315 -119.878 71.5731 -119.878 71.5731C-119.878 71.5731 -103.945 69.8831 -103.382 56.6103C-102.426 42.2108 -85.633 27.1915 -70.3244 27H752.324Z" stroke="url(#paint1_linear_0_1)" stroke-width="4" stroke-linecap="square"/>
</g>
<path id="Union" d="M-104.874 125.89L-104.872 125.892C-104.871 125.893 -104.868 125.895 -104.866 125.897C-104.861 125.902 -104.854 125.91 -104.844 125.92C-104.824 125.94 -104.794 125.97 -104.756 126.008C-104.678 126.086 -104.564 126.201 -104.417 126.348C-104.123 126.643 -103.698 127.068 -103.175 127.592C-102.127 128.642 -100.683 130.087 -99.1005 131.67C-95.9348 134.837 -92.2133 138.555 -89.9852 140.764L-89.2753 141.468L-89.2968 141.489L-83.9442 146.985L-83.2557 147.692L-83.953 148.389L-89.3182 153.764C-89.1684 169.905 -79.0099 180.972 -67.5721 181.295L675.803 181.892C681.929 181.727 687.511 180.807 691.529 177.988C695.345 175.31 697.921 170.793 698 163.025L693.371 159.278L692.594 158.648L693.853 157.094L694.629 157.723L699.009 161.269L699.424 161.264L702.782 157.804L703.479 157.086L704.914 158.479L704.218 159.197L700.039 163.504L699.989 163.555C699.797 171.51 697.052 176.556 692.678 179.625C688.153 182.8 682.065 183.725 675.858 183.892H675.829L-67.5751 183.294H-67.6014C-80.3542 182.95 -91.0248 170.831 -91.3124 154.09L-97.3182 147.792L-98.035 147.041L-97.2567 146.353L-91.9305 141.65C-94.1914 139.404 -97.5926 136.008 -100.516 133.083C-102.098 131.5 -103.542 130.055 -104.59 129.005C-105.114 128.481 -105.539 128.055 -105.833 127.76C-105.98 127.613 -106.094 127.499 -106.172 127.421C-106.21 127.383 -106.24 127.352 -106.26 127.333L-106.29 127.302L-106.996 126.594L-105.58 125.182L-104.874 125.89ZM676.858 36.3774C683.064 36.5447 689.153 37.4695 693.678 40.644C698.285 43.8765 701.087 49.3028 701 58.0103L700.994 58.5415L704.658 61.7476L705.411 62.4067L704.094 63.9116L703.342 63.2534L700 60.3286L696.658 63.2534L695.906 63.9116L694.589 62.4067L695.342 61.7476L698.994 58.5513L699 57.9897C699.082 49.7631 696.466 45.0437 692.529 42.2817C688.511 39.4622 682.929 38.5425 676.803 38.3774L-68.5721 38.9741C-80.1871 39.303 -90.483 50.71 -90.3182 67.2593L-90.3173 67.3608L-85.0848 72.6021L-84.3876 73.3003L-85.076 74.0063L-90.4276 79.5015L-90.4061 79.5229L-91.1161 80.2271C-93.3442 82.4364 -97.0655 86.1548 -100.231 89.3218C-101.814 90.905 -103.258 92.3497 -104.306 93.3989C-104.829 93.9235 -105.254 94.3495 -105.548 94.644C-105.695 94.7911 -105.809 94.9053 -105.887 94.9829C-105.925 95.0216 -105.955 95.0519 -105.974 95.0718L-106.003 95.1001L-106.005 95.1011V95.1021L-106.711 95.8101L-108.127 94.397L-107.421 93.689H-107.42L-107.419 93.687L-107.303 93.5708C-107.225 93.4931 -107.111 93.3782 -106.964 93.231C-106.67 92.9364 -106.244 92.5105 -105.721 91.9858C-104.673 90.9364 -103.229 89.4912 -101.646 87.9077C-98.7232 84.9834 -95.3223 81.5869 -93.0614 79.3413L-98.3885 74.6392L-99.1669 73.9507L-98.4501 73.1987L-92.3368 66.7876L-92.3182 66.7681C-92.2739 49.7231 -81.5032 37.3231 -68.6014 36.9751H-68.5751L676.829 36.3774H676.858Z" fill="url(#paint2_linear_0_1)"/>
</g>
<g id="premium / shimmer-highlight" style="mix-blend-mode:screen">
<path d="M-79.9982 41.4999C-67.0373 27.5383 648.565 35.1082 691.165 37.9764C691.491 37.9983 691.666 38.0509 691.972 38.1654C701.414 41.6991 700.845 54.8896 700.034 60.9917C699.788 62.8408 698.178 64.1249 696.313 64.1249H-86.0473C-88.0306 64.1249 -89.6627 62.6557 -89.4441 60.6845C-89.0004 56.6851 -87.116 49.5899 -79.9982 41.4999Z" fill="url(#paint3_linear_0_1)"/>
</g>
</g>
</g>
</g>
</g>
<defs>
<filter id="filter1_dd_0_1" x="-180.023" y="0" width="1042.05" height="221" filterUnits="userSpaceOnUse" color-interpolation-filters="sRGB">
<feFlood flood-opacity="0" result="BackgroundImageFix"/>
<feColorMatrix in="SourceAlpha" type="matrix" values="0 0 0 0 0 0 0 0 0 0 0 0 0 0 0 0 0 0 127 0" result="hardAlpha"/>
<feMorphology radius="3" operator="dilate" in="SourceAlpha" result="effect1_dropShadow_0_1"/>
<feOffset/>
<feGaussianBlur stdDeviation="11"/>
<feColorMatrix type="matrix" values="0 0 0 0 0.95 0 0 0 0 0.58 0 0 0 0 0.12 0 0 0 0.35 0"/>
<feBlend mode="normal" in2="BackgroundImageFix" result="effect1_dropShadow_0_1"/>
<feColorMatrix in="SourceAlpha" type="matrix" values="0 0 0 0 0 0 0 0 0 0 0 0 0 0 0 0 0 0 127 0" result="hardAlpha"/>
<feMorphology radius="1" operator="dilate" in="SourceAlpha" result="effect2_dropShadow_0_1"/>
<feOffset/>
<feGaussianBlur stdDeviation="4"/>
<feColorMatrix type="matrix" values="0 0 0 0 1 0 0 0 0 0.72 0 0 0 0 0.28 0 0 0 0.2 0"/>
<feBlend mode="normal" in2="effect1_dropShadow_0_1" result="effect2_dropShadow_0_1"/>
<feBlend mode="normal" in="SourceGraphic" in2="effect2_dropShadow_0_1" result="shape"/>
</filter>
<linearGradient id="paint0_linear_0_1" x1="341" y1="27" x2="341" y2="194" gradientUnits="userSpaceOnUse">
<stop stop-color="#4B2F2A"/>
<stop offset="0.25" stop-color="#241A1B" stop-opacity="0.8"/>
<stop offset="0.72" stop-color="#17191F" stop-opacity="0.8"/>
<stop offset="1" stop-color="#5B3525"/>
</linearGradient>
<linearGradient id="paint1_linear_0_1" x1="467.296" y1="26.8648" x2="467.296" y2="194.127" gradientUnits="userSpaceOnUse">
<stop stop-color="#FFD2A8"/>
<stop offset="0.86" stop-color="#F6B987"/>
</linearGradient>
<linearGradient id="paint2_linear_0_1" x1="387.376" y1="36.2699" x2="387.376" y2="169.369" gradientUnits="userSpaceOnUse">
<stop stop-color="#FDCA9B"/>
<stop offset="0.86" stop-color="#DF9E69"/>
</linearGradient>
<linearGradient id="paint3_linear_0_1" x1="304.498" y1="36.9999" x2="304.498" y2="66.9999" gradientUnits="userSpaceOnUse">
<stop stop-color="white" stop-opacity="0"/>
<stop offset="0.2" stop-color="#FFE08C" stop-opacity="0.08"/>
<stop offset="0.5" stop-color="#FFD973" stop-opacity="0.11"/>
<stop offset="0.8" stop-color="#FFE08C" stop-opacity="0.07"/>
<stop offset="1" stop-color="white" stop-opacity="0"/>
</linearGradient>
<clipPath id="clip0_0_1">
<rect width="590" height="221" fill="white"/>
</clipPath>
</defs>
</svg>
